<svg id="visual" viewBox="0 0 900 600" width="900" height="600" xmlns="http://www.w3.org/2000/svg" xmlns:xlink="http://www.w3.org/1999/xlink" version="1.1"><rect x="0" y="0" width="900" height="600" fill="#c4c9ff"></rect><path d="M0 390L37.5 397.8C75 405.7 150 421.3 225 427.8C300 434.3 375 431.7 450 429.7C525 427.7 600 426.3 675 426.2C750 426 825 427 862.5 427.5L900 428L900 601L862.5 601C825 601 750 601 675 601C600 601 525 601 450 601C375 601 300 601 225 601C150 601 75 601 37.5 601L0 601Z" fill="#2f3dd2"></path><path d="M0 450L37.5 449.7C75 449.3 150 448.7 225 454.7C300 460.7 375 473.3 450 474.2C525 475 600 464 675 459.2C750 454.3 825 455.7 862.5 456.3L900 457L900 601L862.5 601C825 601 750 601 675 601C600 601 525 601 450 601C375 601 300 601 225 601C150 601 75 601 37.5 601L0 601Z" fill="#9220af"></path><path d="M0 500L37.5 497C75 494 150 488 225 485.7C300 483.3 375 484.7 450 489C525 493.3 600 500.7 675 503.5C750 506.3 825 504.7 862.5 503.8L900 503L900 601L862.5 601C825 601 750 601 675 601C600 601 525 601 450 601C375 601 300 601 225 601C150 601 75 601 37.5 601L0 601Z" fill="#b80789"></path><path d="M0 540L37.5 541.8C75 543.7 150 547.3 225 551.2C300 555 375 559 450 561.5C525 564 600 565 675 564.2C750 563.3 825 560.7 862.5 559.3L900 558L900 601L862.5 601C825 601 750 601 675 601C600 601 525 601 450 601C375 601 300 601 225 601C150 601 75 601 37.5 601L0 601Z" fill="#c62368"></path></svg>